<?xml version="1.0" ?><!DOCTYPE svg  PUBLIC '-//W3C//DTD SVG 1.1//EN'  'http://www.w3.org/Graphics/SVG/1.1/DTD/svg11.dtd'><svg enable-background="new 0 0 512 512" height="512px" id="Calque_1" version="1.1" viewBox="0 0 512 512" width="512px" xml:space="preserve" xmlns="http://www.w3.org/2000/svg" xmlns:xlink="http://www.w3.org/1999/xlink"><g><g><path d="M366.49,70.1H145.51c-39.98,0-72.5,32.52-72.5,72.5v226.8c0,39.979,32.52,72.5,72.5,72.5h220.98    c39.979,0,72.5-32.521,72.5-72.5V142.6C438.99,102.62,406.471,70.1,366.49,70.1z M393.24,404.44H118.76c-2.76,0-5-2.23-5-5    c0-2.761,2.24-5,5-5h274.48c2.76,0,5,2.239,5,5C398.24,402.21,396,404.44,393.24,404.44z M393.24,374.36H118.76    c-2.76,0-5-2.24-5-5c0-2.771,2.24-5,5-5h274.48c2.76,0,5,2.229,5,5C398.24,372.12,396,374.36,393.24,374.36z M393.24,344.269    H118.76c-2.76,0-5-2.239-5-5c0-2.771,2.24-5,5-5h274.48c2.76,0,5,2.229,5,5C398.24,342.03,396,344.269,393.24,344.269z     M393.24,314.179H118.76c-2.76,0-5-2.239-5-5s2.24-5,5-5h274.48c2.76,0,5,2.239,5,5S396,314.179,393.24,314.179z M393.24,284.09    H118.76c-1.63,0-3.08-0.779-3.99-2c-0.64-0.829-1.01-1.869-1.01-3c0-1.739,0.89-3.27,2.23-4.159c0.8-0.529,1.75-0.841,2.77-0.841    h274.48c2.76,0,5,2.24,5,5C398.24,281.85,396,284.09,393.24,284.09z M393.24,254H118.76c-2.76,0-5-2.239-5-5c0-2.76,2.24-5,5-5    h274.48c2.76,0,5,2.24,5,5C398.24,251.76,396,254,393.24,254z M400.74,156.59c0,28.95-23.551,52.5-52.5,52.5H163.76    c-9.87,0-19.11-2.739-27.01-7.489c-15.26-9.19-25.49-25.931-25.49-45.011V155.1c0-28.95,23.55-52.5,52.5-52.5h184.48    c28.949,0,52.5,23.55,52.5,52.5V156.59z" fill="#00CEFF"/><path d="M385.74,155.1v1.489c0,20.681-16.82,37.5-37.5,37.5h-82.449l-1.051-8.27l-3.779-29.78    c-0.32-2.5-2.441-4.37-4.96-4.37c-2.521,0-4.641,1.87-4.96,4.37l-3.88,30.55l-0.95,7.5h-82.45c-20.68,0-37.5-16.819-37.5-37.5    V155.1c0-20.051,15.81-36.471,35.63-37.45c0.04-0.01,0.07-0.01,0.11-0.01v4.159c0,0.641,0.12,1.261,0.34,1.83    c0.74,1.851,2.54,3.17,4.66,3.17c2.76,0,5-2.239,5-5V117.6h19.67V133.5c0,2.761,2.229,5,5,5c2.76,0,5-2.239,5-5V117.6h19.66v4.199    c0,0.301,0.029,0.591,0.08,0.881c0.409,2.34,2.46,4.119,4.92,4.119c2.159,0,4.01-1.38,4.699-3.3c0.2-0.529,0.301-1.1,0.301-1.7    V117.6h19.67V133.5c0,2.761,2.24,5,5,5c2.759,0,5-2.239,5-5V117.6h19.67v4.199c0,2.761,2.23,5,5,5c2.76,0,5-2.239,5-5V117.6h19.66    V133.5c0,2.761,2.24,5,5,5c2.77,0,5-2.239,5-5V117.6H340v4.199c0,2.761,2.24,5,5,5s5-2.239,5-5v-4.159    c16.9,0.79,30.91,12.81,34.721,28.76C385.391,149.19,385.74,152.11,385.74,155.1z" fill="#DAE8EB"/></g><path d="M247.161,186.59l-0.95,7.5h-82.45c-20.68,0-37.5-16.819-37.5-37.5V155.1   c0-20.051,15.81-36.471,35.63-37.45c0.03,0.64,0.061,1.27,0.11,1.91c0.08,1.359,0.2,2.71,0.34,4.069   C165.741,155.6,185.041,186.61,247.161,186.59z" enable-background="new    " opacity="0.3"/><path d="M385.74,156.01v0.579c0,20.681-16.82,37.5-37.5,37.5h-82.449l-1.051-8.27   C295.541,183.29,335.1,174.21,385.74,156.01z" enable-background="new    " opacity="0.3"/><path d="M161.89,117.65c0.04-0.01,0.07-0.01,0.11-0.01v0.02L161.89,117.65z"/><polygon enable-background="new    " fill="#FFFFFF" opacity="0.7" points="172.001,117.6 191.671,117.6 191.671,120.17    172.001,118.5  "/><path d="M221.331,121.8c0,0.301,0.029,0.591,0.08,0.881l-19.74-1.67   v-3.41h19.66V121.8z" enable-background="new    " fill="#FFFFFF" opacity="0.7"/><path d="M231.331,117.6h19.67v7.59l-19.971-1.69   c0.2-0.529,0.301-1.1,0.301-1.7V117.6z" enable-background="new    " fill="#FFFFFF" opacity="0.7"/><path d="M290.67,117.6h19.66v12.6L261,126.03v-8.43h19.67v4.199   c0,2.761,2.23,5,5,5c2.76,0,5-2.239,5-5V117.6z" enable-background="new    " fill="#FFFFFF" opacity="0.7"/><path d="M385.74,156.59L337.5,132.5l-17.17-1.45V117.6H340v4.199   c0,2.761,2.24,5,5,5s5-2.239,5-5v-4.159c16.9,0.79,30.91,12.81,34.721,28.76L385.74,156.59z" enable-background="new    " fill="#FFFFFF" opacity="0.7"/><path d="M438.99,142.6v219.88c-4.51-58.021-21.49-165.98-38.25-225.392   c-16.76-59.399-202.59-66.989-202.59-66.989h168.34C406.471,70.1,438.99,102.62,438.99,142.6z" enable-background="new    " fill="#FFFFFF" opacity="0.7"/><polygon enable-background="new    " opacity="0.3" points="394.5,259.5 119.195,259.5 120.51,254 394.5,254  "/><rect enable-background="new    " height="5.5" opacity="0.3" width="273.99" x="120.51" y="284.09"/><rect enable-background="new    " height="5.5" opacity="0.3" width="273.99" x="120.51" y="314.179"/><rect enable-background="new    " height="5.5" opacity="0.3" width="273.99" x="120.51" y="344.269"/><polygon enable-background="new    " opacity="0.3" points="394.5,379.86 128.306,379.86 124.81,374.36 394.5,374.36  "/><path d="M348.311,394.44h44.93c2.762,0,5,2.239,5,5c0,2.77-2.238,5-5,5h-81.479H157.501   l-0.152,0.224c-0.149-0.076-0.308-0.146-0.458-0.224h-38.13c-2.76,0-5-2.23-5-5c0-2.761,2.24-5,5-5h22.92   c-6.93-5.771-12.5-12.521-16.87-20.08h-6.05c-2.76,0-5-2.24-5-5c0-2.771,2.24-5,5-5h1.15c-9.41-22.82-10.04-51.37-5.141-82.271   c-0.64-0.829-1.01-1.869-1.01-3c0-1.739,0.89-3.27,2.23-4.159c1.26-6.891,2.779-13.881,4.52-20.931h-1.75c-2.76,0-5-2.239-5-5   c0-2.76,2.24-5,5-5h4.35c3.83-14.04,8.471-28.27,13.641-42.399c-15.26-9.19-25.49-25.931-25.49-45.011v-1.489   c0-28.95,23.55-52.5,52.5-52.5h17.02c6-11.67,11.87-22.59,17.37-32.5h-52.64c-39.98,0-72.5,32.52-72.5,72.5v226.8   c0,39.979,32.52,72.5,72.5,72.5h220.98c39.979,0,72.5-32.521,72.5-72.5v-6.92C405.731,375.679,375.59,386.25,348.311,394.44z    M170.023,409.94h116.872C235.104,420.141,197.111,419.135,170.023,409.94z" enable-background="new    " opacity="0.3"/></g></svg>