<?xml version="1.0" ?><!DOCTYPE svg  PUBLIC '-//W3C//DTD SVG 1.1//EN'  'http://www.w3.org/Graphics/SVG/1.1/DTD/svg11.dtd'><svg enable-background="new 0 0 512 512" height="512px" id="Calque_1" version="1.1" viewBox="0 0 512 512" width="512px" xml:space="preserve" xmlns="http://www.w3.org/2000/svg" xmlns:xlink="http://www.w3.org/1999/xlink"><g><path d="M449.941,255.999c0,12.491-4.99,24.209-13.511,32.831v-65.661   C444.949,231.789,449.941,243.51,449.941,255.999z" fill="#DAE8EB"/><rect fill="#FFD11E" height="225.8" width="28.67" x="392.76" y="143.1"/><rect fill="#FFD11E" height="225.8" width="28.681" x="349.079" y="143.1"/><path d="M299.909,255.999c0,2.76,2.24,5,5,5h29.17v19.369H177.92V261h29.17c2.76,0,5-2.24,5-5   c0-0.16-0.01-0.31-0.03-0.46c-0.22-2.55-2.37-4.54-4.97-4.54h-29.17v-19.37h156.159v19.37h-29.17   C302.151,250.999,299.909,253.24,299.909,255.999z" fill="#DAE8EB"/><path d="M75.57,223.169v65.661c-8.52-8.621-13.51-20.34-13.51-32.831c0-5.64,1.01-11.13,2.931-16.25   C67.29,233.549,70.9,227.89,75.57,223.169z" fill="#DAE8EB"/><rect fill="#FFD11E" height="225.8" width="28.68" x="134.24" y="143.1"/><path d="M119.24,143.1v225.8H90.57v-65.15c0-0.01,0-0.02,0-0.02v-95.46c0,0,0-0.01,0-0.021V143.1H119.24z" fill="#FFD11E"/><g><path d="M119.24,358.138V368.9H90.57v-65.15c0-0.01,0-0.02,0-0.02v-95.46    c0,0,0-0.01,0-0.021V143.1h11.4C98.47,199.82,95.74,306.15,119.24,358.138z" enable-background="new    " opacity="0.3"/><polygon enable-background="new    " fill="#FFFFFF" opacity="0.7" points="101.97,143.1 119.24,143.1 119.24,358.138   "/><path d="M162.915,358.138V368.9h-28.67v-65.15c0-0.01,0-0.02,0-0.02v-95.46    c0,0,0-0.01,0-0.021V143.1h11.399C142.145,199.82,139.415,306.15,162.915,358.138z" enable-background="new    " opacity="0.3"/><polygon enable-background="new    " fill="#FFFFFF" opacity="0.7" points="145.645,143.1 162.915,143.1 162.915,358.138   "/></g><g><path d="M392.756,358.138V368.9h28.67v-65.15c0-0.01,0-0.02,0-0.02v-95.46    c0,0,0-0.01,0-0.021V143.1h-11.4C413.526,199.82,416.256,306.15,392.756,358.138z" enable-background="new    " opacity="0.3"/><polygon enable-background="new    " fill="#FFFFFF" opacity="0.7" points="410.026,143.1 392.756,143.1 392.756,358.138   "/><path d="M349.079,358.138V368.9h28.671v-65.15c0-0.01,0-0.02,0-0.02v-95.46    c0,0,0-0.01,0-0.021V143.1h-11.399C369.851,199.82,372.579,306.15,349.079,358.138z" enable-background="new    " opacity="0.3"/><polygon enable-background="new    " fill="#FFFFFF" opacity="0.7" points="366.351,143.1 349.079,143.1 349.079,358.138   "/></g><g opacity="0.3"><path d="M206.62,250.999h-28.7v-19.37h16.819C196.92,238.589,200.67,245.24,206.62,250.999z"/><path d="M334.079,263.308v17.061H177.92V261h29.17c2.76,0,5-2.24,5-5c0-0.16-0.01-0.31-0.03-0.46    C231.42,269.529,267.96,275.888,334.079,263.308z"/></g><path d="M334.079,231.629v19.37h-16.54   c-37.459-15.39-122.8-19.37-122.8-19.37H334.079z" enable-background="new    " fill="#FFFFFF" opacity="0.7"/><path d="M332.75,261h1.329v2.311C333.74,262.519,333.3,261.75,332.75,261z"/><g><path d="M75.57,263.66v25.17c-8.52-8.621-13.51-20.34-13.51-32.831    c0-5.64,1.01-11.13,2.931-16.25C66.12,249.579,69.14,258.529,75.57,263.66z" enable-background="new    " opacity="0.3"/><path d="M75.57,223.169v17.65c-4.029-6.39-10.579-1.07-10.579-1.07    C67.29,233.549,70.9,227.89,75.57,223.169z" enable-background="new    " fill="#FFFFFF" opacity="0.7"/></g><g><path d="M436.431,263.66v25.17c8.521-8.621,13.51-20.34,13.51-32.831    c0-5.64-1.01-11.13-2.931-16.25C445.881,249.579,442.861,258.529,436.431,263.66z" enable-background="new    " opacity="0.3"/><path d="M436.431,223.169v17.65c4.03-6.39,10.579-1.07,10.579-1.07    C444.711,233.549,441.101,227.89,436.431,223.169z" enable-background="new    " fill="#FFFFFF" opacity="0.7"/></g></g></svg>