<?xml version="1.0" ?><!DOCTYPE svg  PUBLIC '-//W3C//DTD SVG 1.1//EN'  'http://www.w3.org/Graphics/SVG/1.1/DTD/svg11.dtd'><svg enable-background="new 0 0 512 512" height="512px" id="Calque_1" version="1.1" viewBox="0 0 512 512" width="512px" xml:space="preserve" xmlns="http://www.w3.org/2000/svg" xmlns:xlink="http://www.w3.org/1999/xlink"><polygon fill="#FF5959" points="426.34,444.45 417.191,453.599 417.191,435.301 "/><polygon fill="#FF5959" points="449.699,435.23 449.699,453.679 440.481,444.45 "/><path d="M447.699,465.809c-2.771,5.03-8.109,8.45-14.239,8.45c-6.16,0-11.53-3.439-14.301-8.49l14.25-14.25  L447.699,465.809z" fill="#FF5959"/><polygon fill="#FF5959" points="449.699,420.37 449.699,421.091 433.409,437.381 417.191,421.16 417.191,420.3 433.409,404.08 "/><path d="M355.25,465.79c-2.771,5.04-8.12,8.471-14.261,8.471c-6.149,0-11.51-3.431-14.279-8.471l14.271-14.271  L355.25,465.79z" fill="#FF5959"/><polygon fill="#FF5959" points="333.909,444.45 324.72,453.639 324.72,435.26 "/><polygon fill="#FF5959" points="357.24,435.26 357.24,453.639 348.05,444.45 "/><polygon fill="#FF5959" points="357.24,420.33 357.24,421.12 340.981,437.381 324.72,421.12 324.72,420.33 340.981,404.08 "/><g><path d="M440.96,258.2V110.84c0-48.569-39.521-88.09-88.101-88.09c-16.939,0-32.78,4.811-46.229,13.141   c-13.45-8.33-29.29-13.141-46.229-13.141c-48.581,0-88.101,39.521-88.101,88.09v308.41c0,10.95-3.23,21.16-8.771,29.74   c-5.54-8.58-8.77-18.79-8.77-29.74V142.87c0-29.63-24.1-53.729-53.73-53.729c-29.63,0-53.729,24.1-53.729,53.729v276.38   c0,38.601,31.4,70.011,70,70.011c17.71,0,33.89-6.63,46.229-17.511c12.351,10.881,28.53,17.511,46.24,17.511   c38.601,0,70-31.41,70-70.011V110.84c0-22.779,10.48-43.149,26.86-56.569c16.38,13.42,26.859,33.79,26.859,56.569V258.2   c-13.63,3.37-23.771,15.7-23.771,30.35V458.01c0,17.229,14.029,31.25,31.271,31.25c17.229,0,31.25-14.021,31.25-31.25V288.56   c0-14.659-10.13-26.989-23.75-30.359V110.84c0-25.76-11.12-48.97-28.8-65.1c9.96-5.1,21.229-7.99,33.17-7.99   c40.311,0,73.1,32.79,73.1,73.09V258.2c-13.63,3.37-23.77,15.689-23.77,30.35V458.01c0,17.229,14.029,31.25,31.27,31.25   c17.23,0,31.24-14.021,31.24-31.25V288.56C464.699,273.9,454.579,261.57,440.96,258.2z M117.3,474.26c-30.33,0-55-24.681-55-55.011   V142.87c0-21.35,17.37-38.729,38.729-38.729c21.36,0,38.73,17.38,38.73,38.729v276.38c0,15.5,5.07,29.841,13.64,41.45   C143.73,469.131,131.1,474.26,117.3,474.26z M264.77,110.84v308.41c0,30.33-24.68,55.011-55,55.011   c-13.81,0-26.43-5.13-36.1-13.561c8.56-11.609,13.63-25.95,13.63-41.45V110.84c0-40.3,32.79-73.09,73.09-73.09   c11.94,0,23.221,2.891,33.181,7.99C275.88,61.87,264.77,85.08,264.77,110.84z M324.72,292.929l9.189,9.181l-9.189,9.188V292.929z    M324.72,340.37l9.189,9.189l-9.189,9.189V340.37z M324.72,387.82l9.189,9.18l-9.189,9.19V387.82z M324.72,435.26l9.189,9.189   l-9.189,9.189V435.26z M340.99,474.26c-6.149,0-11.51-3.431-14.279-8.471l14.271-14.271l14.27,14.271   C352.481,470.83,347.13,474.26,340.99,474.26z M357.24,453.639l-9.189-9.189l9.189-9.189V453.639z M357.24,421.12l-16.26,16.261   l-16.261-16.261v-0.79l16.261-16.25l16.26,16.25V421.12z M357.24,406.19l-9.189-9.182l9.189-9.188V406.19z M357.24,373.679   l-16.26,16.261l-16.261-16.261v-0.79l16.261-16.261l16.26,16.261V373.679z M357.24,358.75l-9.189-9.189l9.189-9.189V358.75z    M357.24,326.23l-16.26,16.26l-16.261-16.26v-0.79l16.261-16.25l16.26,16.25V326.23z M357.24,311.3l-9.189-9.18l9.189-9.189V311.3z    M355.25,280.769L340.98,295.04l-14.271-14.271c2.76-5.05,8.13-8.489,14.279-8.489C347.13,272.28,352.49,275.719,355.25,280.769z    M433.46,272.28c6.13,0,11.479,3.43,14.25,8.47l-14.301,14.29l-14.25-14.25C421.92,275.73,427.289,272.28,433.46,272.28z    M417.191,292.96l9.149,9.15l-9.149,9.159V292.96z M417.191,340.41l9.149,9.149l-9.149,9.149V340.41z M417.191,387.849l9.149,9.149   l-9.149,9.16V387.849z M417.191,435.301l9.149,9.149l-9.149,9.149V435.301z M433.46,474.26c-6.16,0-11.53-3.439-14.301-8.49   l14.25-14.25l14.29,14.29C444.93,470.841,439.59,474.26,433.46,474.26z M449.699,453.679l-9.22-9.229l9.22-9.22V453.679z    M449.699,421.091l-16.29,16.29l-16.22-16.221v-0.86l16.22-16.22l16.29,16.29V421.091z M449.699,406.23l-9.22-9.23l9.22-9.22   V406.23z M449.699,373.639l-16.29,16.301l-16.22-16.23v-0.859l16.22-16.221l16.29,16.29V373.639z M449.699,358.78l-9.22-9.221   l9.22-9.229V358.78z M449.699,326.2l-16.29,16.29l-16.22-16.221v-0.859l16.22-16.22l16.29,16.29V326.2z M449.699,311.34   l-9.22-9.229l9.22-9.221V311.34z" fill="#FF5959"/><polygon fill="#FF5959" points="426.34,302.11 417.191,311.269 417.191,292.96  "/><polygon fill="#FF5959" points="449.699,292.889 449.699,311.34 440.481,302.11  "/><polygon fill="#FF5959" points="449.699,340.33 449.699,358.78 440.481,349.559  "/><polygon fill="#FF5959" points="426.34,349.559 417.191,358.71 417.191,340.41  "/><polygon fill="#FF5959" points="449.699,387.78 449.699,406.23 440.481,397  "/><polygon fill="#FF5959" points="426.34,397 417.191,406.16 417.191,387.849  "/><polygon fill="#FF5959" points="449.699,372.92 449.699,373.639 433.409,389.94 417.191,373.71 417.191,372.849 433.409,356.63     "/><polygon fill="#FF5959" points="449.699,325.48 449.699,326.2 433.409,342.49 417.191,326.269 417.191,325.41 433.409,309.19  "/><path d="M447.71,280.75l-14.301,14.29l-14.25-14.25c2.761-5.06,8.13-8.51,14.301-8.51   C439.59,272.28,444.941,275.71,447.71,280.75z" fill="#FF5959"/><polygon fill="#FF5959" points="357.24,387.82 357.24,406.19 348.05,397.01  "/><polygon fill="#FF5959" points="333.909,397 324.72,406.19 324.72,387.82  "/><polygon fill="#FF5959" points="333.909,349.559 324.72,358.75 324.72,340.37  "/><polygon fill="#FF5959" points="357.24,372.889 357.24,373.679 340.981,389.94 324.72,373.679 324.72,372.889 340.981,356.63  "/><polygon fill="#FF5959" points="357.24,340.37 357.24,358.75 348.05,349.559  "/><polygon fill="#FF5959" points="357.24,292.929 357.24,311.3 348.05,302.12  "/><polygon fill="#FF5959" points="333.909,302.11 324.72,311.3 324.72,292.929  "/><polygon fill="#FF5959" points="357.24,325.44 357.24,326.23 340.981,342.49 324.72,326.23 324.72,325.44 334.531,315.639    340.981,309.19  "/><path d="M355.25,280.769l-6.141,6.141l-8.13,8.13l-14.271-14.271c1.88-3.431,4.96-6.119,8.68-7.5   c1.75-0.641,3.641-0.989,5.601-0.989C347.13,272.28,352.49,275.719,355.25,280.769z" fill="#FF5959"/><g><path d="M340.981,295.04l-14.271-14.271c1.88-3.431,4.96-6.119,8.68-7.5    L340.981,295.04z" enable-background="new    " opacity="0.3"/><path d="M340.981,451.519L326.71,465.79c1.88,3.431,4.96,6.119,8.68,7.5    L340.981,451.519z" enable-background="new    " opacity="0.3"/><polygon enable-background="new    " opacity="0.3" points="340.981,342.49 324.72,326.23 324.72,325.44 334.531,315.639   "/><polygon enable-background="new    " opacity="0.3" points="340.981,389.94 324.72,373.68 324.72,372.89 334.531,363.09   "/><polygon enable-background="new    " opacity="0.3" points="340.981,437.381 324.72,421.12 324.72,420.33 334.531,410.529   "/><polygon enable-background="new    " fill="#FFFFFF" opacity="0.7" points="334.531,315.639 357.24,325.44 340.981,309.19   "/><polygon enable-background="new    " fill="#FFFFFF" opacity="0.7" points="334.531,363.079 357.24,372.88 340.981,356.63   "/><polygon enable-background="new    " fill="#FFFFFF" opacity="0.7" points="334.531,410.529 357.24,420.33 340.981,404.08   "/><path d="M355.25,280.769l-6.141,6.141    c-3.32-9.891-13.721-13.641-13.721-13.641c1.75-0.641,3.641-0.989,5.601-0.989C347.13,272.28,352.49,275.719,355.25,280.769z" enable-background="new    " fill="#FFFFFF" opacity="0.7"/><path d="M355.25,465.77l-6.141-6.141    c-3.32,9.891-13.721,13.641-13.721,13.641c1.75,0.64,3.641,0.989,5.601,0.989C347.13,474.26,352.49,470.82,355.25,465.77z" enable-background="new    " fill="#FFFFFF" opacity="0.7"/><polygon enable-background="new    " opacity="0.3" points="333.909,302.11 324.72,311.3 324.72,302.8   "/><polygon enable-background="new    " opacity="0.3" points="333.909,349.555 324.72,358.745 324.72,350.245   "/><polygon enable-background="new    " opacity="0.3" points="333.909,397.005 324.72,406.194 324.72,397.694   "/><polygon enable-background="new    " opacity="0.3" points="333.909,444.455 324.72,453.644 324.72,445.144   "/><polygon enable-background="new    " opacity="0.3" points="348.049,302.11 357.24,311.3 357.24,302.8   "/><polygon enable-background="new    " opacity="0.3" points="348.049,349.555 357.24,358.745 357.24,350.245   "/><polygon enable-background="new    " opacity="0.3" points="348.049,397.005 357.24,406.194 357.24,397.694   "/><polygon enable-background="new    " opacity="0.3" points="348.049,444.455 357.24,453.644 357.24,445.144   "/></g><g><path d="M433.446,295.04l14.271-14.271c-1.88-3.431-4.96-6.119-8.681-7.5    L433.446,295.04z" enable-background="new    " opacity="0.3"/><path d="M433.446,451.519l14.271,14.271c-1.88,3.431-4.96,6.119-8.681,7.5    L433.446,451.519z" enable-background="new    " opacity="0.3"/><polygon enable-background="new    " opacity="0.3" points="433.446,342.49 449.705,326.23 449.705,325.44 439.896,315.639   "/><polygon enable-background="new    " opacity="0.3" points="433.446,389.94 449.705,373.68 449.705,372.89 439.896,363.09   "/><polygon enable-background="new    " opacity="0.3" points="433.446,437.381 449.705,421.12 449.705,420.33 439.896,410.529   "/><polygon enable-background="new    " fill="#FFFFFF" opacity="0.7" points="439.896,315.639 417.186,325.44 433.446,309.19   "/><polygon enable-background="new    " fill="#FFFFFF" opacity="0.7" points="439.896,363.079 417.186,372.88 433.446,356.63   "/><polygon enable-background="new    " fill="#FFFFFF" opacity="0.7" points="439.896,410.529 417.186,420.33 433.446,404.08   "/><path d="M419.176,280.769l6.14,6.141    c3.32-9.891,13.721-13.641,13.721-13.641c-1.75-0.641-3.641-0.989-5.601-0.989C427.296,272.28,421.936,275.719,419.176,280.769z" enable-background="new    " fill="#FFFFFF" opacity="0.7"/><path d="M419.176,465.77l6.14-6.141    c3.32,9.891,13.721,13.641,13.721,13.641c-1.75,0.64-3.641,0.989-5.601,0.989C427.296,474.26,421.936,470.82,419.176,465.77z" enable-background="new    " fill="#FFFFFF" opacity="0.7"/><polygon enable-background="new    " opacity="0.3" points="440.516,302.11 449.705,311.3 449.705,302.8   "/><polygon enable-background="new    " opacity="0.3" points="440.516,349.555 449.705,358.745 449.705,350.245   "/><polygon enable-background="new    " opacity="0.3" points="440.516,397.005 449.705,406.194 449.705,397.694   "/><polygon enable-background="new    " opacity="0.3" points="440.516,444.455 449.705,453.644 449.705,445.144   "/><polygon enable-background="new    " opacity="0.3" points="426.377,302.11 417.187,311.3 417.187,302.8   "/><polygon enable-background="new    " opacity="0.3" points="426.377,349.555 417.187,358.745 417.187,350.245   "/><polygon enable-background="new    " opacity="0.3" points="426.377,397.005 417.187,406.194 417.187,397.694   "/><polygon enable-background="new    " opacity="0.3" points="426.377,444.455 417.187,453.644 417.187,445.144   "/></g></g></svg>